<svg width="256" height="256" viewBox="0 0 256 256" fill="none" xmlns="http://www.w3.org/2000/svg">
<g clip-path="url(#clip0)">
<path d="M199.837 111.51C199.674 111.548 199.509 111.582 199.344 111.611L196.308 117.264C202.823 120.917 207.227 127.897 207.227 135.906C207.227 147.698 197.683 157.256 185.909 157.256C184.224 157.256 182.584 157.061 181.012 156.69V218.383C181.012 239.158 164.195 256 143.451 256H129.746C109.002 256 92.186 239.158 92.186 218.383V141.322C86.3487 138.807 82.2776 133.486 81.2729 127.363C69.9847 126.817 61 117.478 61 106.038C61 94.2468 70.5445 84.6881 82.3181 84.6881C82.9905 84.6881 83.6556 84.7193 84.3121 84.7803L84.7543 79.4934C80.4615 78.2556 77.9781 73.7837 79.2102 69.498L81.4394 61.744C82.6716 57.458 87.1492 54.9936 91.442 56.2315L92.5496 56.5397C92.8923 56.5923 93.2355 56.6674 93.5775 56.766L99.488 58.4703L110.996 61.6725C107.801 56.6739 105.953 50.7531 105.953 44.4062C105.953 26.5088 120.653 12 138.786 12C156.92 12 171.62 26.5088 171.62 44.4062C171.62 49.2271 170.553 53.8021 168.641 57.9139L177.424 54.0299C184.568 50.8707 193.186 53.9498 196.364 61.4705C199.493 68.875 195.888 77.1697 188.842 80.2853L184.611 82.1563L206.14 88.1468C210.437 89.3858 212.916 93.8565 211.684 98.1422L209.455 105.896C208.259 110.055 204.013 112.499 199.837 111.51Z" fill="#2AAAEA"/>
<circle cx="120.934" cy="34.3123" r="23.0828" fill="white"/>
<path fill-rule="evenodd" clip-rule="evenodd" d="M141.249 33.8411C141.249 44.8983 132.154 53.8619 120.934 53.8619C109.714 53.8619 100.619 44.8983 100.619 33.8411C100.619 29.5001 102.021 25.4817 104.403 22.2017C115.279 25.2793 124.964 23.2753 128.552 21.8287C128.111 23.3496 127.152 25.2342 126.177 26.9064C125.338 28.3455 126.413 30.2024 128.083 29.9829C133.432 29.2794 137.407 27.7801 139.869 26.572C140.76 28.8253 141.249 31.2769 141.249 33.8411ZM153.438 33.8411C153.438 51.5326 138.886 65.8744 120.934 65.8744C102.982 65.8744 88.4297 51.5326 88.4297 33.8411C88.4297 16.1497 102.982 1.80786 120.934 1.80786C138.886 1.80786 153.438 16.1497 153.438 33.8411Z" fill="#20252A"/>
<path fill-rule="evenodd" clip-rule="evenodd" d="M80.8301 108.334V204.585C80.8301 221.302 94.3814 234.853 111.098 234.853H127.442C144.159 234.853 157.71 221.302 157.71 204.585V108.334H80.8301Z" fill="white"/>
<path fill-rule="evenodd" clip-rule="evenodd" d="M162.735 113.862H74.8008V205.816C74.8008 226.352 91.4485 243 111.985 243H125.552C146.088 243 162.735 226.352 162.735 205.816V113.862ZM86.8604 205.816V125.921H113.996L113.996 230.94H111.985C98.1088 230.94 86.8604 219.692 86.8604 205.816ZM124.045 230.94H125.552C139.427 230.94 150.676 219.692 150.676 205.816V125.921H124.045L124.045 230.94Z" fill="#20252A"/>
<path d="M187.196 94.6235L189.403 86.9588C190.623 82.7223 188.168 78.3031 183.914 77.0784L76.1788 46.0587C71.929 44.8351 67.4964 47.2711 66.2765 51.5078L64.0697 59.1725C62.8499 63.409 65.3084 67.8293 69.5582 69.0529L64.2394 109.769C62.9642 118.756 68.5312 127.319 77.2879 129.841L139.088 147.634C147.844 150.155 157.113 145.864 160.811 137.575L177.294 100.073C181.547 101.297 185.976 98.8602 187.196 94.6235Z" fill="white"/>
<path fill-rule="evenodd" clip-rule="evenodd" d="M169.63 86.0658L83.5547 61.2827L74.3929 122.201C74.0493 124.908 75.7375 127.538 78.4716 128.326L109.371 137.222L140.271 146.119C143.015 146.909 145.853 145.567 146.994 143.076L169.63 86.0658ZM158.512 148.157C154.813 156.446 145.545 160.738 136.788 158.216L74.9885 140.423C66.2318 137.902 60.6648 129.338 61.94 120.352L67.4442 68.5245C63.1944 67.3009 60.7359 62.8806 61.9557 58.6441L64.1625 50.9794C65.3824 46.7427 69.815 44.3067 74.0648 45.5303L187.612 77.0783C191.866 78.303 194.32 82.7223 193.101 86.9587L190.894 94.6235C189.674 98.8602 185.245 101.297 180.991 100.073L158.512 148.157Z" fill="#20252A"/>
<path fill-rule="evenodd" clip-rule="evenodd" d="M172.033 52.6238C173.162 55.29 171.883 58.4199 169.177 59.6147L131.992 76.034C129.286 77.2288 126.178 76.036 125.049 73.3698C123.921 70.7037 125.2 67.5738 127.906 66.379L165.091 49.9596C167.797 48.7649 170.905 49.9576 172.033 52.6238Z" fill="white"/>
<path fill-rule="evenodd" clip-rule="evenodd" d="M177.933 50.709C181.03 58.0283 177.462 66.2275 170.487 69.3073L137.901 83.6959C130.828 86.8187 122.296 83.7751 119.15 76.3409C116.053 69.0216 119.622 60.8224 126.597 57.7426L159.183 43.354C166.255 40.2312 174.787 43.2748 177.933 50.709ZM134.039 74.9497C131.668 75.9967 128.944 74.9514 127.955 72.615C126.985 70.3215 128.047 67.6365 130.329 66.5482C130.372 66.5278 130.415 66.508 130.458 66.4888L163.045 52.1002C165.416 51.0532 168.14 52.0985 169.128 54.4349C170.099 56.7284 169.037 59.4134 166.754 60.5017C166.712 60.5221 166.669 60.5419 166.625 60.5611L134.039 74.9497Z" fill="#20252A"/>
<path d="M137.84 123.438C136.744 120.902 135.261 118.575 133.916 116.172C132.703 114.006 132.88 113.01 134.817 111.496C136.931 109.844 139.134 108.305 141.259 106.666C143.243 105.134 145.257 103.617 146.687 101.503C147.596 100.158 147.374 99.3792 145.929 98.6698C145.68 98.5468 145.41 98.4644 145.143 98.3855L136.117 95.7074C135.009 95.3623 134.251 95.6655 133.567 96.535C132.642 97.7105 131.702 98.8799 130.689 99.9787C128.393 102.47 125.958 104.814 123.006 106.536C122.355 106.916 121.61 107.419 120.863 106.9C119.939 106.216 120.138 104.419 120.326 103.847L123.396 93.4229C123.635 91.8747 123.501 91.1134 122.108 90.3873L112.728 87.6181C111.476 87.2482 110.706 87.5464 109.806 88.132C109.286 88.4705 109.083 88.7296 109.832 89.1138C111.301 89.869 111.88 91.1356 111.652 92.7652C111.288 95.3694 110.523 97.8657 109.568 100.306C109.289 101.019 108.948 101.711 108.456 102.308C107.685 103.247 106.888 103.249 106.121 102.305C105.427 101.45 105.064 100.426 104.716 99.4018C103.405 95.5588 102.623 91.6009 102.224 87.5667C102.108 86.4012 101.565 85.555 100.468 85.2121C97.7716 84.3687 95.0642 83.5611 92.3397 82.8134C90.7007 82.3626 89.9809 83.0103 90.2081 84.684C91.2197 92.1187 92.6188 99.4694 95.1886 106.548C96.5084 110.181 98.2574 113.561 100.971 116.392C104.046 119.601 107.84 121.414 112.093 122.457C114.085 122.945 114.825 122.609 115.495 120.678C115.952 119.357 116.497 118.07 117.513 117.061C118.511 116.072 119.559 116.137 120.475 117.206C120.932 117.741 121.271 118.351 121.576 118.977C122.324 120.513 123.022 122.074 123.824 123.582C124.831 125.472 126.28 126.841 128.476 127.298L136.774 129.751C138.137 130.059 139.314 128.624 138.988 126.905C138.757 125.7 138.325 124.561 137.84 123.438Z" fill="#20252A"/>
<circle cx="167.584" cy="124.288" r="14.0695" fill="white"/>
<path fill-rule="evenodd" clip-rule="evenodd" d="M167.584 135.343C173.689 135.343 178.638 130.394 178.638 124.288C178.638 118.183 173.689 113.234 167.584 113.234C161.478 113.234 156.529 118.183 156.529 124.288C156.529 130.394 161.478 135.343 167.584 135.343ZM167.584 145.393C179.239 145.393 188.688 135.944 188.688 124.288C188.688 112.633 179.239 103.184 167.584 103.184C155.928 103.184 146.479 112.633 146.479 124.288C146.479 135.944 155.928 145.393 167.584 145.393Z" fill="#20252A"/>
<circle cx="65.0334" cy="94.7639" r="14.0695" fill="white"/>
<path fill-rule="evenodd" clip-rule="evenodd" d="M65.032 105.819C71.1373 105.819 76.0866 100.869 76.0866 94.7639C76.0866 88.6586 71.1373 83.7093 65.032 83.7093C58.9267 83.7093 53.9774 88.6586 53.9774 94.7639C53.9774 100.869 58.9267 105.819 65.032 105.819ZM65.032 115.868C76.6876 115.868 86.1363 106.42 86.1363 94.7639C86.1363 83.1084 76.6876 73.6597 65.032 73.6597C53.3764 73.6597 43.9277 83.1084 43.9277 94.7639C43.9277 106.42 53.3764 115.868 65.032 115.868Z" fill="#20252A"/>
</g>
<defs>
<clipPath id="clip0">
<rect width="256" height="256" fill="white"/>
</clipPath>
</defs>
</svg>
